<?xml version="1.0" encoding="utf-8"?>
<!-- Generator: Adobe Illustrator 25.4.1, SVG Export Plug-In . SVG Version: 6.00 Build 0)  -->
<svg version="1.1" id="Layer_1" xmlns="http://www.w3.org/2000/svg" xmlns:xlink="http://www.w3.org/1999/xlink" x="0px" y="0px"
	 viewBox="0 0 971.4 485.7" style="enable-background:new 0 0 971.4 485.7;" xml:space="preserve">
<style type="text/css">
	.st0{clip-path:url(#SVGID_00000043446834920913863130000005591449926351556253_);}
	.st1{fill:url(#SVGID_00000160183555129843291480000003105893785853295751_);}
	.st2{fill:url(#SVGID_00000069381495745636973880000009022927062531275426_);}
	.st3{fill:url(#SVGID_00000178911538747256180600000007432244682933331851_);}
	.st4{fill:url(#SVGID_00000039819569326556132730000017754340447985386387_);}
	.st5{fill:url(#SVGID_00000059996697820663250680000002242967454597082298_);}
	.st6{fill:url(#SVGID_00000035492691863849752600000016031292515304914356_);}
	.st7{fill:url(#SVGID_00000010293146473934748190000007893332248022177684_);}
	.st8{fill:url(#SVGID_00000044861723045335884470000016845851634209446568_);}
	.st9{fill:url(#SVGID_00000149372163657408040490000016100738636439524526_);}
	.st10{fill:url(#SVGID_00000010282035778065716360000016919057024093009793_);}
	.st11{fill:url(#SVGID_00000062150851354463924520000013311218183524445369_);}
	.st12{fill:url(#SVGID_00000123408827581303075640000007636613934604809391_);}
	.st13{fill:url(#SVGID_00000037691614892001056810000003969970218901441443_);}
	.st14{fill:url(#SVGID_00000057126724744313559620000003316919781522140606_);}
	.st15{fill:url(#SVGID_00000081610841037287192720000012268478421272476843_);}
	.st16{fill:url(#SVGID_00000152223515520077679210000012655887577276122524_);}
	.st17{fill:url(#SVGID_00000065055975949966438790000014864963962557208458_);}
	.st18{fill:url(#SVGID_00000144325051320793510360000018178192539537951885_);}
	.st19{fill:url(#SVGID_00000155841003944997054520000014046083175300900541_);}
	.st20{fill:url(#SVGID_00000160895828676656180100000000897153161778094000_);}
	.st21{fill:url(#SVGID_00000013904477731683695520000017020770995771166643_);}
	.st22{fill:url(#SVGID_00000049210276629110414410000006051430910632749965_);}
	.st23{fill:url(#SVGID_00000119114524720287238630000002532596325152628151_);}
	.st24{fill:url(#SVGID_00000042006172464663851920000003092913359805121676_);}
	.st25{fill:url(#SVGID_00000044155128065686261820000015345644828776257959_);}
	.st26{fill:url(#SVGID_00000137838171832172532790000008551571168976366234_);}
	.st27{fill:url(#SVGID_00000173860360215830007120000007900860315527878578_);}
	.st28{fill:url(#SVGID_00000034063709871234810950000000817323270585914513_);}
	.st29{fill:url(#SVGID_00000110448598939700203900000009016997726855688854_);}
	.st30{fill:url(#SVGID_00000171700641872167989000000016204812776170357899_);}
	.st31{fill:url(#SVGID_00000078029289921977486410000010487234044044603320_);}
	.st32{fill:url(#SVGID_00000071526189635600084020000012448419351470171269_);}
	.st33{fill:url(#SVGID_00000018955557633271085670000014032540452959066783_);}
	.st34{fill:url(#SVGID_00000162332992984089981160000006630371129680825496_);}
	.st35{fill:url(#SVGID_00000111182477210858424660000011821017961682579358_);}
	.st36{fill:url(#SVGID_00000082362397665665285200000000319050320839642773_);}
	.st37{fill:url(#SVGID_00000070119716212909033180000014259460242815466419_);}
	.st38{fill:url(#SVGID_00000044883595708033305690000010361604966746706364_);}
	.st39{fill:url(#SVGID_00000151531304986038905900000002863786371341184128_);}
	.st40{fill:url(#SVGID_00000175321737859019102190000016435528617547955091_);}
	.st41{fill:url(#SVGID_00000050631194918513956880000011584550981541535400_);}
	.st42{fill:url(#SVGID_00000175323224815028325400000007447920806194610593_);}
	.st43{fill:url(#SVGID_00000060012133260204618270000006470152491617165731_);}
	.st44{fill:url(#SVGID_00000094581661339126528750000005621117894688974977_);}
	.st45{fill:url(#SVGID_00000000200504953346028500000018192092983458940817_);}
	.st46{fill:url(#SVGID_00000122701919619626339810000004232170813173163190_);}
	.st47{fill:url(#SVGID_00000170239485340694877640000011315649664690642828_);}
	.st48{fill:url(#SVGID_00000065069210044353655630000012033706251855445395_);}
	.st49{fill:url(#SVGID_00000111884286608823453230000006904544650307210385_);}
	.st50{fill:url(#SVGID_00000029041281051914453430000006360428928694240176_);}
	.st51{fill:url(#SVGID_00000115474320949198732740000011420620959366449307_);}
	.st52{fill:url(#SVGID_00000031200254965020776270000014047234288120128902_);}
	.st53{fill:url(#SVGID_00000019669098433977827400000010711017106540331184_);}
	.st54{fill:url(#SVGID_00000064334588297695337680000004408305934623961255_);}
	.st55{fill:url(#SVGID_00000106866321334681103850000015634398473595176332_);}
	.st56{fill:url(#SVGID_00000148627759783963932740000017494247386259740082_);}
	.st57{fill:#FFFFFF;}
	.st58{fill:#5E1174;}
	.st59{fill:#2B0C51;}
</style>
<g>
	<defs>
		<rect id="SVGID_1_" x="14" y="7" width="943.4" height="471.7"/>
	</defs>
	<clipPath id="SVGID_00000067917939071834262700000016908562398883385759_">
		<use xlink:href="#SVGID_1_"  style="overflow:visible;"/>
	</clipPath>
	<g style="clip-path:url(#SVGID_00000067917939071834262700000016908562398883385759_);">
		<path d="M737.9,358.4c61.3,0,110.9-49.6,110.9-110.9s-49.7-110.9-110.9-110.9c-61.3,0-110.9,49.6-110.9,110.9
			S676.7,358.4,737.9,358.4z"/>
		
			<linearGradient id="SVGID_00000005249976159218827270000014498719896788242337_" gradientUnits="userSpaceOnUse" x1="578.5335" y1="187.8222" x2="957.3242" y2="187.8222" gradientTransform="matrix(1 0 0 -1 0 486.063)">
			<stop  offset="0" style="stop-color:#D3AAD4"/>
			<stop  offset="1" style="stop-color:#5A3374"/>
		</linearGradient>
		<path style="fill:url(#SVGID_00000005249976159218827270000014498719896788242337_);" d="M900.9,139.9
			c20.7,18.7,37.3,41.4,48.9,66.7c-3.3-3.7-7.1-7.1-11.1-10.1c-2.2-1.6-4.4-3-6.7-4.4c0.9,3.8,2,7.5,3.4,11.1c0.7,1.7,1.3,3.3,2,4.9
			c3.8,2.6,7.2,5.6,10.1,9.1c4.6,5.5,8,12,9.9,19c-4.4-7.4-10.6-13.5-18-17.8c5.9,31.1,4.3,63.2-4.7,93.5
			c-7.7,24.5-19.9,47.3-36.1,67.2c-19.9,24.5-45.1,44.2-73.6,57.7c-15.5,7.3-31.9,12.7-48.7,16c-27.5,5.3-55.7,5-83.1-0.9
			c-61-13.2-98.8-52.1-112.3-67.4c-0.6-0.4-1.2-1-1.6-1.7c-0.4-0.7-0.6-1.4-0.7-2.2c-0.1-0.8,0-1.5,0.3-2.3c0.3-0.7,0.7-1.4,1.2-1.9
			c0.5-0.5,1.2-1,1.9-1.2c0.7-0.3,1.5-0.4,2.3-0.3s1.5,0.3,2.2,0.7c0.7,0.4,1.2,0.9,1.7,1.6c11.3,12.9,24.1,24.3,38.3,34
			c20.7,14.3,43.9,24.6,68.4,30.3c33.7,8.2,68.9,7.2,102-2.9c33.1-10.1,63-28.9,86.3-54.4c23.4-25.5,39.5-56.9,46.6-90.7
			c7.1-33.9,5-69-6.1-101.8c-1.7,3.6-3.4,7.5-5,11.5c-2.3,5.3-4.2,10.5-5.9,15.5C915.7,191.9,911.6,164.7,900.9,139.9z"/>
		
			<linearGradient id="SVGID_00000142147141896743905650000006045792552910685056_" gradientUnits="userSpaceOnUse" x1="864.4043" y1="235.4431" x2="924.8826" y2="235.4431" gradientTransform="matrix(1 0 0 -1 0 486.063)">
			<stop  offset="0" style="stop-color:#D3AAD4"/>
			<stop  offset="1" style="stop-color:#5A3374"/>
		</linearGradient>
		<path style="fill:url(#SVGID_00000142147141896743905650000006045792552910685056_);" d="M924,208.6c2.2,13.2,0.2,26.8-5.8,38.8
			c-3.6,7.7-9,14.4-15.8,19.5c-6.3,4.2-12.9,7.9-19.9,10.9c-4.1,1.5-7.9,3.7-11.3,6.5c-2.7,2.4-4.9,5.2-6.7,8.3
			c-0.8-10.8,1.8-21.6,7.7-30.7c7.2-10.6,15.8-12.4,28.5-23.2C910.2,230.2,918.2,220,924,208.6z"/>
		
			<linearGradient id="SVGID_00000055675620709665379620000009048925746884498590_" gradientUnits="userSpaceOnUse" x1="833.2915" y1="190.1009" x2="928.2022" y2="190.1009" gradientTransform="matrix(1 0 0 -1 0 486.063)">
			<stop  offset="0" style="stop-color:#D3AAD4"/>
			<stop  offset="1" style="stop-color:#5A3374"/>
		</linearGradient>
		<path style="fill:url(#SVGID_00000055675620709665379620000009048925746884498590_);" d="M927.4,250.2c-1.5,7.5-4.9,14.4-9.9,20.2
			c-5.3,6-11.3,9-23.1,14.6c-17.3,8.3-21,7.3-28.5,13c-6.8,5.8-12.3,13-16.2,21.1c-2.1,4.4-4.6,8.7-7.4,12.7c-2.7,3.6-5.7,6.9-9,9.9
			c5.2-2.5,13.1-5.9,22.9-9.5c20.3-7.2,23.5-5.5,33.3-10.1c23.7-11.2,33.3-34.8,34.1-36.8C927.9,274.1,929.2,262,927.4,250.2z"/>
		
			<linearGradient id="SVGID_00000183966968774835853220000000403418422413360556_" gradientUnits="userSpaceOnUse" x1="787.5026" y1="140.3792" x2="916.4052" y2="140.3792" gradientTransform="matrix(1 0 0 -1 0 486.063)">
			<stop  offset="0" style="stop-color:#D3AAD4"/>
			<stop  offset="1" style="stop-color:#5A3374"/>
		</linearGradient>
		<path style="fill:url(#SVGID_00000183966968774835853220000000403418422413360556_);" d="M916.4,310c-4.6,7.2-10.5,13.4-17.5,18.2
			c-7.8,5.3-14.4,7.1-42.7,14.1c-24.6,6.1-23.8,5.8-25.3,6.3c-16.2,5.5-31,14.6-43.4,26.5c8.9,2.6,18.1,4.3,27.4,5.2
			c14.6,1.3,34.8,3.2,55.9-7.2c7-3.5,13.5-8,19.2-13.3C903.9,346.5,913.1,329,916.4,310z"/>
		
			<linearGradient id="SVGID_00000072968228585568662960000017710925270692265378_" gradientUnits="userSpaceOnUse" x1="809.6529" y1="96.3113" x2="877.28" y2="96.3113" gradientTransform="matrix(1 0 0 -1 0 486.063)">
			<stop  offset="0" style="stop-color:#D3AAD4"/>
			<stop  offset="1" style="stop-color:#5A3374"/>
		</linearGradient>
		<path style="fill:url(#SVGID_00000072968228585568662960000017710925270692265378_);" d="M877.3,379.2c-6.7,4.2-14,7.4-21.6,9.5
			c-15.1,4-31,3.9-46-0.4c5,4.9,11.2,8.5,18,10.5c6.1,1.6,12.4,2,18.7,1.1c6.2-0.9,12.2-3.1,17.5-6.5
			C869.3,389.7,873.9,384.9,877.3,379.2z"/>
		
			<linearGradient id="SVGID_00000011734146485983887840000004016271880701338555_" gradientUnits="userSpaceOnUse" x1="746.0453" y1="88.6871" x2="842.6924" y2="88.6871" gradientTransform="matrix(1 0 0 -1 0 486.063)">
			<stop  offset="0" style="stop-color:#D3AAD4"/>
			<stop  offset="1" style="stop-color:#5A3374"/>
		</linearGradient>
		<path style="fill:url(#SVGID_00000011734146485983887840000004016271880701338555_);" d="M842.7,408.6c-9.1,5.4-19.8,7.6-30.3,6.1
			c-7.5-1.3-13.1-4.6-22.5-10.1c-11.6-6.9-13.7-10.5-23.2-15.3c-6.5-3.3-13.5-5.6-20.7-7c6.3-1.2,12.6-2,19-2.2
			c10.5-0.5,15.8-0.9,22.2,0.9c5.5,1.8,10.7,4.6,15.3,8.1c4.5,3.3,8.9,6.9,13,10.8C823.4,405.5,832.9,408.6,842.7,408.6z"/>
		
			<linearGradient id="SVGID_00000047746994104694732830000010762867444399784115_" gradientUnits="userSpaceOnUse" x1="687.3674" y1="82.1096" x2="815.2536" y2="82.1096" gradientTransform="matrix(1 0 0 -1 0 486.063)">
			<stop  offset="0" style="stop-color:#D3AAD4"/>
			<stop  offset="1" style="stop-color:#5A3374"/>
		</linearGradient>
		<path style="fill:url(#SVGID_00000047746994104694732830000010762867444399784115_);" d="M815.4,422.5c-7-1.3-13.9-3.3-20.4-6.1
			c-23.3-9.7-26.9-21.6-48.5-29c-7.5-2.5-6-0.8-25.6-5.4c-14.1-3.3-25.6-6.8-33.3-9.2c3.8,5.2,9.5,12.7,17.1,21.3
			c13.3,15.2,25,28.5,38,35C769.5,443.1,803.1,428.5,815.4,422.5z"/>
		
			<linearGradient id="SVGID_00000159440032130476653450000005211791431052576144_" gradientUnits="userSpaceOnUse" x1="691.6385" y1="72.6227" x2="758.382" y2="72.6227" gradientTransform="matrix(1 0 0 -1 0 486.063)">
			<stop  offset="0" style="stop-color:#D3AAD4"/>
			<stop  offset="1" style="stop-color:#5A3374"/>
		</linearGradient>
		<path style="fill:url(#SVGID_00000159440032130476653450000005211791431052576144_);" d="M691.6,388.1
			c4.4,10.5,11.1,19.9,19.6,27.6c13.2,11.8,29.7,19.4,47.3,21.8c-7.2,1.6-14.6,1.6-21.8-0.2C706,429.3,691.5,388.2,691.6,388.1z"/>
		
			<linearGradient id="SVGID_00000018957115994333082790000001596570629152982148_" gradientUnits="userSpaceOnUse" x1="642.4798" y1="94.1409" x2="724.6855" y2="94.1409" gradientTransform="matrix(1 0 0 -1 0 486.063)">
			<stop  offset="0" style="stop-color:#D3AAD4"/>
			<stop  offset="1" style="stop-color:#5A3374"/>
		</linearGradient>
		<path style="fill:url(#SVGID_00000018957115994333082790000001596570629152982148_);" d="M724.7,439.4c-6.3-3.6-12.1-8-17.1-13.3
			c-11.1-11.6-11.5-19.8-25.3-40.7c-4.4-6.9-9.4-13.4-14.8-19.5c-7.4-8.1-15.7-15.4-24.7-21.6c-0.4,11.4-0.3,22.8,0.4,34.1
			c0.9,13.5,1.4,20.4,4.1,26.3c6.8,14.7,21.2,21.3,31.6,26.1C693.2,437.3,708.9,440.2,724.7,439.4z"/>
		
			<linearGradient id="SVGID_00000138544842315407561870000009732360617382481077_" gradientUnits="userSpaceOnUse" x1="628.5985" y1="107.5758" x2="645.8152" y2="107.5758" gradientTransform="matrix(1 0 0 -1 0 486.063)">
			<stop  offset="0" style="stop-color:#D3AAD4"/>
			<stop  offset="1" style="stop-color:#5A3374"/>
		</linearGradient>
		<path style="fill:url(#SVGID_00000138544842315407561870000009732360617382481077_);" d="M635.9,343.9c1.8,5.9,2.7,12,2.7,18.2
			c-0.2,6-0.9,12.1-2.2,18c-0.9,7.3,0,18.2,9.5,33c-4.4-3.2-8.2-7.2-11-11.9c-5.1-8.7-7.1-18.8-5.6-28.8c1-5.4,2.5-6.6,4.7-16.6
			C635,350.8,635.6,346.7,635.9,343.9z"/>
		
			<linearGradient id="SVGID_00000153664817474708366170000012764283896006535050_" gradientUnits="userSpaceOnUse" x1="608.0892" y1="126.7289" x2="633.2108" y2="126.7289" gradientTransform="matrix(1 0 0 -1 0 486.063)">
			<stop  offset="0" style="stop-color:#D3AAD4"/>
			<stop  offset="1" style="stop-color:#5A3374"/>
		</linearGradient>
		<path style="fill:url(#SVGID_00000153664817474708366170000012764283896006535050_);" d="M621.1,312c5,6.4,8,14.1,8.8,22.1
			c0.2,7-0.7,14-2.7,20.7c-1.5,6.3-3,9.9-3.6,11.9c-2.4,7.4-2.2,19.5,9.5,40c-6.8-4.8-12.4-11-16.6-18.2c-1.9-3.3-11.7-19.9-7.4-38
			c1.3-5.3,2.4-5.2,5.9-15.5C617.6,327.5,619.6,319.8,621.1,312z"/>
		
			<linearGradient id="SVGID_00000160175346117034174680000007798513407647416502_" gradientUnits="userSpaceOnUse" x1="584.4492" y1="164.4167" x2="613.438" y2="164.4167" gradientTransform="matrix(1 0 0 -1 0 486.063)">
			<stop  offset="0" style="stop-color:#D3AAD4"/>
			<stop  offset="1" style="stop-color:#5A3374"/>
		</linearGradient>
		<path style="fill:url(#SVGID_00000160175346117034174680000007798513407647416502_);" d="M604,367.7c-1.3-5.9-1.6-12-0.9-18
			c0.9-7.1,3.1-13.9,6.5-20.2c4.3-8.8,6.8-24.3-2.7-53.8c-2.5,8.6-5.9,16.8-10.1,24.7c-3.8,6.1-7,12.6-9.5,19.3
			c-1.7,5.4-2.7,11-2.9,16.6C590.9,346.7,597.5,357.1,604,367.7z"/>
		
			<linearGradient id="SVGID_00000011009862907468692060000011049240332911657149_" gradientUnits="userSpaceOnUse" x1="529.3185" y1="142.164" x2="602.0128" y2="142.164" gradientTransform="matrix(1 0 0 -1 0 486.063)">
			<stop  offset="0" style="stop-color:#D3AAD4"/>
			<stop  offset="1" style="stop-color:#5A3374"/>
		</linearGradient>
		<path style="fill:url(#SVGID_00000011009862907468692060000011049240332911657149_);" d="M602,380.7c-4.2-10.5-10.4-20-18.2-28.1
			c-5.2-5.2-11-9.7-17.3-13.5c-3.8-2-7.7-3.8-11.7-5.2c-7.1-3-16.5-9.8-25.3-26.9c1.5,8,4.7,15.6,9.5,22.1
			c6.3,8.3,14.5,15,23.9,19.5c-10-0.2-19.9-2.9-28.5-8.1c2.4,6.7,6.8,12.5,12.7,16.6c8.6,5.6,16.1,3.7,26.9,6.3
			C584.8,366.5,594.5,372.4,602,380.7z"/>
		
			<linearGradient id="SVGID_00000018925598389809182420000006044107412209225393_" gradientUnits="userSpaceOnUse" x1="522.4959" y1="195.8578" x2="576.787" y2="195.8578" gradientTransform="matrix(1 0 0 -1 0 486.063)">
			<stop  offset="0" style="stop-color:#D3AAD4"/>
			<stop  offset="1" style="stop-color:#5A3374"/>
		</linearGradient>
		<path style="fill:url(#SVGID_00000018925598389809182420000006044107412209225393_);" d="M522.6,240.6c3.7,7.5,8.1,14.7,13.3,21.4
			c6.1,7.9,13.1,15.1,20.9,21.3c1.4,5.9,3,12.2,5,18.7c4,13,9,25.7,15,38c-6.2-2.9-12.1-6.4-17.5-10.6c-7.4-5.8-14-12.5-19.7-20
			C520.6,283.7,522.4,244.3,522.6,240.6z"/>
		
			<linearGradient id="SVGID_00000106858563553578180880000001327982634137536945_" gradientUnits="userSpaceOnUse" x1="563.7485" y1="211.7045" x2="604.2264" y2="211.7045" gradientTransform="matrix(1 0 0 -1 0 486.063)">
			<stop  offset="0" style="stop-color:#D3AAD4"/>
			<stop  offset="1" style="stop-color:#5A3374"/>
		</linearGradient>
		<path style="fill:url(#SVGID_00000106858563553578180880000001327982634137536945_);" d="M604.2,219.2c-2.2,4.9-5.2,9.3-8.8,13.3
			c-6,6.5-11.1,8.4-15.8,12.1c-4.7,3.8-11.7,11.4-15.8,25.6c1.9,15.3,5.5,30.4,10.8,44.9c1.9,5.1,3.8,9.9,5.9,14.4
			c0.7-7.8,2.5-15.4,5.4-22.7c5.1-12.7,9.5-13.8,13.5-24.7c2.1-5.7,2.4-9.2,3.6-34.2C603.4,239.5,603.8,229.8,604.2,219.2z"/>
		
			<linearGradient id="SVGID_00000055689654761442741690000005250792428996511647_" gradientUnits="userSpaceOnUse" x1="524.9834" y1="267.8963" x2="556.1248" y2="267.8963" gradientTransform="matrix(1 0 0 -1 0 486.063)">
			<stop  offset="0" style="stop-color:#D3AAD4"/>
			<stop  offset="1" style="stop-color:#5A3374"/>
		</linearGradient>
		<path style="fill:url(#SVGID_00000055689654761442741690000005250792428996511647_);" d="M536.9,160.8c-4.1,9.8-7.2,19.9-9.2,30.3
			c-2.2,9.6-3,19.6-2.2,29.4c0.7,10.3,3.5,20.4,8.3,29.6c5.4,10.1,13.1,18.8,22.5,25.3c-2.3-10.5-3.5-21.3-3.5-32
			c0-9.3,0.8-18.5,2.5-27.6c-5.6-6.1-10.1-13.1-13.3-20.7C537.5,184.3,535.8,172.5,536.9,160.8z"/>
		
			<linearGradient id="SVGID_00000114796727804582258100000018146144819308159420_" gradientUnits="userSpaceOnUse" x1="561.5671" y1="275.33" x2="631.8566" y2="275.33" gradientTransform="matrix(1 0 0 -1 0 486.063)">
			<stop  offset="0" style="stop-color:#D3AAD4"/>
			<stop  offset="1" style="stop-color:#5A3374"/>
		</linearGradient>
		<path style="fill:url(#SVGID_00000114796727804582258100000018146144819308159420_);" d="M631.9,162.6c-3.4,4.2-6.5,8.6-9.2,13.3
			c-5.2,8.8-5.6,12.4-11.7,23.3c-2.5,4.9-5.4,9.6-8.8,13.9c-3.9,4.9-5.5,5.6-16.9,15.8c-12.1,11-14.7,14.2-16.8,17.7
			c-2.3,3.8-4.1,7.9-5.4,12.1c-1.4-9.1-1.8-18.4-1.3-27.6c0.7-13.5,3.3-26.8,7.8-39.5c3.9-4.9,8.7-9,14.2-12.1
			c7.2-4,12.7-4.6,21-6.8C614.1,170.4,623.2,167,631.9,162.6z"/>
		
			<linearGradient id="SVGID_00000140693337054863585200000007898507204389881523_" gradientUnits="userSpaceOnUse" x1="543.3056" y1="334.6367" x2="579.5145" y2="334.6367" gradientTransform="matrix(1 0 0 -1 0 486.063)">
			<stop  offset="0" style="stop-color:#D3AAD4"/>
			<stop  offset="1" style="stop-color:#5A3374"/>
		</linearGradient>
		<path style="fill:url(#SVGID_00000140693337054863585200000007898507204389881523_);" d="M556.3,208
			c-6.8-10.3-11.2-22.1-12.7-34.4c-4.9-44.1,31.6-75.4,35.8-78.9c-2.6,7.6-4.4,15.4-5.2,23.4c-1.1,11-0.4,22.2,2,33
			C566,168.7,559.2,188,556.3,208L556.3,208z"/>
		
			<linearGradient id="SVGID_00000095305038702706742660000017247937839957686689_" gradientUnits="userSpaceOnUse" x1="572.7721" y1="329.6234" x2="664.5188" y2="329.6234" gradientTransform="matrix(1 0 0 -1 0 486.063)">
			<stop  offset="0" style="stop-color:#D3AAD4"/>
			<stop  offset="1" style="stop-color:#5A3374"/>
		</linearGradient>
		<path style="fill:url(#SVGID_00000095305038702706742660000017247937839957686689_);" d="M572.8,181c3.1-10,7.7-19.6,13.5-28.3
			c9-13.5,15.4-16.5,17.3-17.3c4.4-1.8,8.2-2,15.8-2.2c14.1-0.5,18.6,2.2,30.3,1.4c5-0.4,10-1.3,14.8-2.7
			c-5.2,6.2-11.3,11.7-18,16.4c-8,5.4-16.7,9.7-25.9,12.8c-13.3,4.9-16.5,4-27.4,8.5C586,172.6,579.1,176.4,572.8,181z"/>
		
			<linearGradient id="SVGID_00000182492141392745556220000009302809987841875639_" gradientUnits="userSpaceOnUse" x1="579.9543" y1="388.9632" x2="640.0564" y2="388.9632" gradientTransform="matrix(1 0 0 -1 0 486.063)">
			<stop  offset="0" style="stop-color:#D3AAD4"/>
			<stop  offset="1" style="stop-color:#5A3374"/>
		</linearGradient>
		<path style="fill:url(#SVGID_00000182492141392745556220000009302809987841875639_);" d="M581.2,143.7c-1.1-6.4-1.5-13-1.2-19.5
			c0-11.4,2.6-22.7,7.8-32.9c6.1-11.5,14.4-17.8,23.3-24.6c8.8-6.7,18.6-12.2,29-16.2c-6.2,6.2-11.5,13.4-15.5,21.2
			c-5.4,10.5-8.6,21.9-9.5,33.7l-14.3,13.3l1-19.2c-1.5,3.2-2.6,6.5-3.4,9.9c-0.9,4-1.3,8.2-1.2,12.3l-3.3,4.6
			c-0.6-3.5-0.9-6.9-1-10.4c-0.1-4.1,0.1-8.2,0.7-12.3c-4.2,8.4-5.3,18-3.2,27.1c-1.5,1.9-2.9,3.9-4.4,5.9
			C584.5,138.7,582.7,141.4,581.2,143.7z"/>
		
			<linearGradient id="SVGID_00000082365014043919825630000002091845999719813027_" gradientUnits="userSpaceOnUse" x1="620.4659" y1="420.5781" x2="716.8658" y2="420.5781" gradientTransform="matrix(1 0 0 -1 0 486.063)">
			<stop  offset="0" style="stop-color:#D3AAD4"/>
			<stop  offset="1" style="stop-color:#5A3374"/>
		</linearGradient>
		<path style="fill:url(#SVGID_00000082365014043919825630000002091845999719813027_);" d="M620.5,102c1.2-9.6,4.2-18.8,8.8-27.3
			c6-10.9,14.5-20.3,24.8-27.5c13.2-9.1,25.6-11.9,38.9-14.8c7.9-1.7,15.9-2.9,23.9-3.4c-4.1,3.2-8.2,6.6-12.5,10.6
			c-10.5,9.8-19.6,20.9-27.3,33c-5.4,0.9-10.6,2.4-15.7,4.4c-5.2,2-10.1,4.6-14.7,7.7c0.3-2.8,1-5.6,2-8.3
			c2.3-6.2,6.2-11.6,11.3-15.8c-5,2.6-9.3,6.3-12.5,10.9c-3.2,4.6-5.2,9.9-5.9,15.5l-8.4,4.7l3.7-11.8c-4.1,4.4-7.1,9.7-8.6,15.5
			L620.5,102z"/>
		
			<linearGradient id="SVGID_00000035519302057573004160000015060306776918322084_" gradientUnits="userSpaceOnUse" x1="686.1317" y1="436.4608" x2="790.8842" y2="436.4608" gradientTransform="matrix(1 0 0 -1 0 486.063)">
			<stop  offset="0" style="stop-color:#D3AAD4"/>
			<stop  offset="1" style="stop-color:#5A3374"/>
		</linearGradient>
		<path style="fill:url(#SVGID_00000035519302057573004160000015060306776918322084_);" d="M686.1,69.4c4.1-5.3,8.4-10.4,13-15.3
			c9.3-9.8,14.9-15.7,24.1-19.6c4.9-2.1,10.1-3.5,15.4-4c8.9-0.8,17.8-0.9,26.7-0.4c8.6,0.4,17.1,1.5,25.5,3.2
			c-9.9,1.4-19.3,4.9-27.8,10.3c-8.5,5.5-15.8,12.7-21.3,21.2l-18.7-0.2c3-3.6,6.4-7,10-10.1c3-2.6,6.3-4.9,9.7-7.1
			c-10.4,2.1-19.6,8.3-25.5,17.2l-12.7,1.8c1.1-2.2,2.5-4.3,4-6.3c3.6-4.6,8.2-8.5,13.4-11.2c-5.2,1.5-10,4.2-14.1,7.9
			c-3,2.7-5.5,5.9-7.4,9.5L686.1,69.4z"/>
		
			<linearGradient id="SVGID_00000124137458281976927810000005233437693270800042_" gradientUnits="userSpaceOnUse" x1="746.5502" y1="430.3822" x2="842.7921" y2="430.3822" gradientTransform="matrix(1 0 0 -1 0 486.063)">
			<stop  offset="0" style="stop-color:#D3AAD4"/>
			<stop  offset="1" style="stop-color:#5A3374"/>
		</linearGradient>
		<path style="fill:url(#SVGID_00000124137458281976927810000005233437693270800042_);" d="M746.6,64.3c4.9-4.1,10-7.8,15.5-11.1
			c8.5-5.2,17.7-9.3,27.3-12.1c24-5.6,47.5,10.9,53.4,15.3c-17.6,0.1-34.7,5.3-49.4,15c-4.1-0.8-8.3-1.6-12.5-2.3
			C769,67,757.5,65.4,746.6,64.3z"/>
		
			<linearGradient id="SVGID_00000168105872841901148600000010281779409151634871_" gradientUnits="userSpaceOnUse" x1="796.9367" y1="387.462" x2="924.7897" y2="387.462" gradientTransform="matrix(1 0 0 -1 0 486.063)">
			<stop  offset="0" style="stop-color:#D3AAD4"/>
			<stop  offset="1" style="stop-color:#5A3374"/>
		</linearGradient>
		<path style="fill:url(#SVGID_00000168105872841901148600000010281779409151634871_);" d="M796.9,73.5c6.2-3.3,12.7-5.9,19.6-7.6
			c11.3-3.3,23.3-3.7,34.8-1.2c13.1,3.5,24.7,11,33.2,21.5c-3.9-1.9-8.2-3-12.5-3.2c-4.4-0.2-8.7,0.5-12.8,2
			c7.3,1.2,14.3,3.5,20.9,6.7c9.2,4.6,12.4,8.7,21.4,13.5c7.3,3.8,15.1,6.4,23.3,7.7c-4.3,3.1-8.9,5.9-13.7,8.3
			c-8.1,4.1-16.7,6.9-25.6,8.4c-24.6,3.2-47.7-20.5-50.6-23.4c0.8,3.1,2,6.2,3.7,9c8.4,14.1,24.7,17.6,29,18.3
			c-6.2,0.9-12.5,0.6-18.5-0.9c-16.3-4-26.2-16.1-36.2-28.3c-6-7.4-11.3-15.3-15.8-23.8l22.6,8.1c1,2.6,2.4,5,4,7.2
			c1.8,2.5,3.9,4.7,6.3,6.6c-2.2-2.2-3.9-4.8-4.9-7.7c-0.7-2-1-4.2-1-6.3l21.7,9.1c1.1,2.5,2.6,4.8,4.2,6.9
			c5.3,6.7,12.7,11.5,20.9,13.8c-4-1.6-7.7-4-10.7-7.1c-3.1-3.1-5.4-6.7-7-10.8c9.6,7.3,21.3,11.3,33.4,11.6
			c-7.4-3.2-13.3-5.9-17.2-7.7c-9.5-4.6-13.7-7.3-24.7-12.7c-5.7-2.8-10.4-5-13.3-6.3c1.9-1.3,3.9-2.4,6-3.2
			c3.8-1.3,7.8-1.7,11.8-1.2c-7.8-1.9-16.1-1.3-23.6,1.7c-3.2-1.1-6.3-2.3-9.5-3.4C809.5,77.1,803.1,75.1,796.9,73.5z"/>
		
			<linearGradient id="SVGID_00000085245359527247066940000010374785904115522985_" gradientUnits="userSpaceOnUse" x1="675.6923" y1="383.4146" x2="836.5868" y2="383.4146" gradientTransform="matrix(1 0 0 -1 0 486.063)">
			<stop  offset="0" style="stop-color:#D3AAD4"/>
			<stop  offset="1" style="stop-color:#5A3374"/>
		</linearGradient>
		<path style="fill:url(#SVGID_00000085245359527247066940000010374785904115522985_);" d="M675.7,81.4c3-2,6.5-2.9,10.1-2.7
			c1.9,0.2,3.7,0.9,5.4,1.8c4.8,2.3,9.7,4,14.8,5.3c-3.7-2.1-7.6-4.2-11.7-6.3c-2-1-3.9-1.9-5.9-2.8h10.4c2.5,2.1,5.1,4.1,8,5.7
			c5,3.1,10.5,5.5,16.2,6.9c-4-1.9-7.8-4-11.6-6.3c-3.7-2.4-7.3-5-10.8-7.7l11.8-0.3c3.7,3.2,7.7,6,11.9,8.5
			c3.7,2.2,7.6,4.2,11.7,5.9c-6-2.8-11.5-6.7-16.1-11.5c-1.3-1.4-2.6-2.9-3.7-4.4h11.6c2.4,2,5.1,4.1,8.1,6.3
			c4.3,3,8.8,5.8,13.5,8.2c-3-2.7-6.3-5.4-9.8-8.2c-3.4-2.8-6.3-4.7-9.2-6.9c19.2-1.4,38.5,0.7,57,6.1c3,3,5.8,6.3,8.4,9.7
			c4.2,5.6,7.8,11.7,10.7,18.1c3.5,7.2,11.3,16.7,30.1,26c-9,0.6-18-0.3-26.6-2.6c-19.8-5.7-37-18-48.9-34.8c0.4,2.5,1.1,4.9,2,7.3
			c2.5,6.2,6.5,11.7,11.8,15.8c-13.5-2.1-26.5-6.1-38.9-11.9c-14.9-7.1-24.5-15-44.5-21.1C686.3,83.7,681,82.4,675.7,81.4z"/>
		
			<linearGradient id="SVGID_00000109733290853583289790000005495325338210502040_" gradientUnits="userSpaceOnUse" x1="602.5197" y1="377.1534" x2="733.3823" y2="377.1534" gradientTransform="matrix(1 0 0 -1 0 486.063)">
			<stop  offset="0" style="stop-color:#D3AAD4"/>
			<stop  offset="1" style="stop-color:#5A3374"/>
		</linearGradient>
		<path style="fill:url(#SVGID_00000109733290853583289790000005495325338210502040_);" d="M660.1,87.4c6.1-0.8,12.2-0.6,18.2,0.5
			c11.4,2.2,17.2,7.1,30.2,13.2c8.1,3.8,16.4,6.8,24.9,9.3c-7.4,0.3-14.9,1.3-22.2,2.8c-16.4,3.5-17.9,7-32.3,10.1
			c-12.2,2.5-24.7,3.4-37.1,2.7c-7.7-0.9-15.4-0.9-23.1,0.2c-5.6,0.9-11,2.5-16.2,4.7c3.1-4.5,7.2-8.3,11.8-11.3
			c16.9-10.8,36.1-5.2,39.8-4c-5-3.4-10.8-5.4-16.8-5.8c-6-0.4-12,0.7-17.4,3.3c4.9-3.6,10.1-7.3,15.7-10.9
			C644,96.5,652.2,91.6,660.1,87.4z"/>
		
			<linearGradient id="SVGID_00000062176405706755914410000011661821566583524790_" gradientUnits="userSpaceOnUse" x1="696.0073" y1="238.8275" x2="778.7327" y2="238.8275" gradientTransform="matrix(1 0 0 -1 0 486.063)">
			<stop  offset="0" style="stop-color:#D3AAD4"/>
			<stop  offset="1" style="stop-color:#5A3374"/>
		</linearGradient>
		<path style="fill:url(#SVGID_00000062176405706755914410000011661821566583524790_);" d="M737.4,288.6c-8.2,0-16.2-2.4-23-7
			c-6.8-4.5-12.1-11-15.2-18.5c-3.1-7.6-4-15.9-2.4-23.9c1.6-8,5.5-15.4,11.3-21.2c5.8-5.8,13.2-9.7,21.2-11.3
			c8-1.6,16.3-0.8,23.9,2.3c7.6,3.1,14,8.4,18.6,15.2c4.5,6.8,7,14.8,7,23c0,11-4.4,21.5-12.1,29.2
			C758.9,284.2,748.4,288.6,737.4,288.6z M737.4,211.2c-7.1,0-14.1,2.1-20.1,6.1c-5.9,4-10.6,9.6-13.3,16.2
			c-2.7,6.6-3.4,13.8-2.1,20.8c1.4,7,4.8,13.4,9.9,18.5c5,5,11.5,8.5,18.5,9.9c7,1.4,14.3,0.7,20.9-2.1c6.6-2.7,12.2-7.4,16.2-13.3
			c4-5.9,6.1-12.9,6.1-20c0-9.5-3.8-18.7-10.6-25.5C756.1,215,747,211.2,737.4,211.2z"/>
		
			<linearGradient id="SVGID_00000008856557635567598090000002238672089111166884_" gradientUnits="userSpaceOnUse" x1="619.3887" y1="238.6069" x2="856.558" y2="238.6069" gradientTransform="matrix(1 0 0 -1 0 486.063)">
			<stop  offset="0" style="stop-color:#D3AAD4"/>
			<stop  offset="1" style="stop-color:#5A3374"/>
		</linearGradient>
		<path style="fill:url(#SVGID_00000008856557635567598090000002238672089111166884_);" d="M737.9,366c-23.5,0-46.4-7-65.9-20
			c-19.5-13-34.7-31.5-43.7-53.2c-9-21.7-11.3-45.5-6.7-68.5c4.6-23,15.9-44.1,32.5-60.7s37.7-27.9,60.7-32.4
			c23-4.6,46.8-2.2,68.5,6.8c21.7,9,40.2,24.2,53.2,43.7c13,19.5,20,42.4,20,65.8c0,31.4-12.5,61.6-34.8,83.8
			C799.5,353.5,769.4,366,737.9,366z M737.9,136.9c-21.9,0-43.3,6.5-61.5,18.7c-18.2,12.2-32.4,29.5-40.8,49.7
			c-8.4,20.2-10.6,42.5-6.3,64c4.3,21.5,14.8,41.2,30.3,56.7c15.5,15.5,35.2,26,56.7,30.3c21.5,4.3,43.8,2.1,64-6.3
			c20.2-8.4,37.5-22.6,49.7-40.8c12.2-18.2,18.7-39.6,18.7-61.5c0-14.5-2.8-29-8.4-42.4c-5.6-13.4-13.7-25.7-24-36
			c-10.3-10.3-22.5-18.5-35.9-24c-13.4-5.6-27.9-8.4-42.4-8.4V136.9z"/>
		
			<linearGradient id="SVGID_00000031887434392455083110000010923353630208238993_" gradientUnits="userSpaceOnUse" x1="522.5146" y1="187.8222" x2="957.4173" y2="187.8222" gradientTransform="matrix(1 0 0 -1 0 486.063)">
			<stop  offset="0" style="stop-color:#D3AAD4"/>
			<stop  offset="1" style="stop-color:#5E1174"/>
		</linearGradient>
		<path style="fill:url(#SVGID_00000031887434392455083110000010923353630208238993_);" d="M900.9,139.9
			c20.7,18.7,37.3,41.4,48.9,66.7c-3.3-3.7-7.1-7.1-11.1-10.1c-2.2-1.6-4.4-3-6.7-4.4c0.9,3.8,2,7.5,3.4,11.1c0.7,1.7,1.3,3.3,2,4.9
			c3.8,2.6,7.2,5.6,10.1,9.1c4.6,5.5,8,12,9.9,19c-4.4-7.4-10.6-13.5-18-17.8c5.9,31.1,4.3,63.2-4.7,93.5
			c-7.7,24.5-19.9,47.3-36.1,67.2c-19.9,24.5-45.1,44.2-73.6,57.7c-15.5,7.3-31.9,12.7-48.7,16c-27.5,5.3-55.7,5-83.1-0.9
			c-61-13.2-98.8-52.1-112.3-67.4c-0.6-0.4-1.2-1-1.6-1.7c-0.4-0.7-0.6-1.4-0.7-2.2c-0.1-0.8,0-1.5,0.3-2.3c0.3-0.7,0.7-1.4,1.2-1.9
			c0.5-0.5,1.2-1,1.9-1.2c0.7-0.3,1.5-0.4,2.3-0.3s1.5,0.3,2.2,0.7c0.7,0.4,1.2,0.9,1.7,1.6c11.3,12.9,24.1,24.3,38.3,34
			c20.7,14.3,43.9,24.6,68.4,30.3c33.7,8.2,68.9,7.2,102-2.9c33.1-10.1,63-28.9,86.3-54.4c23.4-25.5,39.5-56.9,46.6-90.7
			c7.1-33.9,5-69-6.1-101.8c-1.7,3.6-3.4,7.5-5,11.5c-2.3,5.3-4.2,10.5-5.9,15.5C915.7,191.9,911.6,164.7,900.9,139.9z"/>
		
			<linearGradient id="SVGID_00000181070001485461389930000000849146327641488801_" gradientUnits="userSpaceOnUse" x1="522.5159" y1="235.4431" x2="957.4173" y2="235.4431" gradientTransform="matrix(1 0 0 -1 0 486.063)">
			<stop  offset="0" style="stop-color:#D3AAD4"/>
			<stop  offset="1" style="stop-color:#5E1174"/>
		</linearGradient>
		<path style="fill:url(#SVGID_00000181070001485461389930000000849146327641488801_);" d="M924,208.6c2.2,13.2,0.2,26.8-5.8,38.8
			c-3.6,7.7-9,14.4-15.8,19.5c-6.3,4.2-12.9,7.9-19.9,10.9c-4.1,1.5-7.9,3.7-11.3,6.5c-2.7,2.4-4.9,5.2-6.7,8.3
			c-0.8-10.8,1.8-21.6,7.7-30.7c7.2-10.6,15.8-12.4,28.5-23.2C910.2,230.2,918.2,220,924,208.6z"/>
		
			<linearGradient id="SVGID_00000099658601452137445630000013406466202807558045_" gradientUnits="userSpaceOnUse" x1="522.5139" y1="190.1009" x2="957.4173" y2="190.1009" gradientTransform="matrix(1 0 0 -1 0 486.063)">
			<stop  offset="0" style="stop-color:#D3AAD4"/>
			<stop  offset="1" style="stop-color:#5E1174"/>
		</linearGradient>
		<path style="fill:url(#SVGID_00000099658601452137445630000013406466202807558045_);" d="M927.4,250.2c-1.5,7.5-4.9,14.4-9.9,20.2
			c-5.3,6-11.3,9-23.1,14.6c-17.3,8.3-21,7.3-28.5,13c-6.8,5.8-12.3,13-16.2,21.1c-2.1,4.4-4.6,8.7-7.4,12.7c-2.7,3.6-5.7,6.9-9,9.9
			c5.2-2.5,13.1-5.9,22.9-9.5c20.3-7.2,23.5-5.5,33.3-10.1c23.7-11.2,33.3-34.8,34.1-36.8C927.9,274.1,929.2,262,927.4,250.2z"/>
		
			<linearGradient id="SVGID_00000052801959301771944760000000511499856532552351_" gradientUnits="userSpaceOnUse" x1="522.5152" y1="140.3792" x2="957.4173" y2="140.3792" gradientTransform="matrix(1 0 0 -1 0 486.063)">
			<stop  offset="0" style="stop-color:#D3AAD4"/>
			<stop  offset="1" style="stop-color:#5E1174"/>
		</linearGradient>
		<path style="fill:url(#SVGID_00000052801959301771944760000000511499856532552351_);" d="M916.4,310c-4.6,7.2-10.5,13.4-17.5,18.2
			c-7.8,5.3-14.4,7.1-42.7,14.1c-24.6,6.1-23.8,5.8-25.3,6.3c-16.2,5.5-31,14.6-43.4,26.5c8.9,2.6,18.1,4.3,27.4,5.2
			c14.6,1.3,34.8,3.2,55.9-7.2c7-3.5,13.5-8,19.2-13.3C903.9,346.5,913.1,329,916.4,310z"/>
		
			<linearGradient id="SVGID_00000015325464635283709520000015176898279335380104_" gradientUnits="userSpaceOnUse" x1="522.5119" y1="96.3113" x2="957.4173" y2="96.3113" gradientTransform="matrix(1 0 0 -1 0 486.063)">
			<stop  offset="0" style="stop-color:#D3AAD4"/>
			<stop  offset="1" style="stop-color:#5E1174"/>
		</linearGradient>
		<path style="fill:url(#SVGID_00000015325464635283709520000015176898279335380104_);" d="M877.3,379.2c-6.7,4.2-14,7.4-21.6,9.5
			c-15.1,4-31,3.9-46-0.4c5,4.9,11.2,8.5,18,10.5c6.1,1.6,12.4,2,18.7,1.1c6.2-0.9,12.2-3.1,17.5-6.5
			C869.3,389.7,873.9,384.9,877.3,379.2z"/>
		
			<linearGradient id="SVGID_00000167379093948749223960000010840689206165691314_" gradientUnits="userSpaceOnUse" x1="522.5152" y1="88.6871" x2="957.4173" y2="88.6871" gradientTransform="matrix(1 0 0 -1 0 486.063)">
			<stop  offset="0" style="stop-color:#D3AAD4"/>
			<stop  offset="1" style="stop-color:#5E1174"/>
		</linearGradient>
		<path style="fill:url(#SVGID_00000167379093948749223960000010840689206165691314_);" d="M842.7,408.6c-9.1,5.4-19.8,7.6-30.3,6.1
			c-7.5-1.3-13.1-4.6-22.5-10.1c-11.6-6.9-13.7-10.5-23.2-15.3c-6.5-3.3-13.5-5.6-20.7-7c6.3-1.2,12.6-2,19-2.2
			c10.5-0.5,15.8-0.9,22.2,0.9c5.5,1.8,10.7,4.6,15.3,8.1c4.5,3.3,8.9,6.9,13,10.8C823.4,405.5,832.9,408.6,842.7,408.6z"/>
		
			<linearGradient id="SVGID_00000160877493854141535420000017254426333881289614_" gradientUnits="userSpaceOnUse" x1="522.5159" y1="82.1096" x2="957.4173" y2="82.1096" gradientTransform="matrix(1 0 0 -1 0 486.063)">
			<stop  offset="0" style="stop-color:#D3AAD4"/>
			<stop  offset="1" style="stop-color:#5E1174"/>
		</linearGradient>
		<path style="fill:url(#SVGID_00000160877493854141535420000017254426333881289614_);" d="M815.4,422.5c-7-1.3-13.9-3.3-20.4-6.1
			c-23.3-9.7-26.9-21.6-48.5-29c-7.5-2.5-6-0.8-25.6-5.4c-14.1-3.3-25.6-6.8-33.3-9.2c3.8,5.2,9.5,12.7,17.1,21.3
			c13.3,15.2,25,28.5,38,35C769.5,443.1,803.1,428.5,815.4,422.5z"/>
		
			<linearGradient id="SVGID_00000153694047810002815410000004351931164002901681_" gradientUnits="userSpaceOnUse" x1="522.5159" y1="72.6227" x2="957.4173" y2="72.6227" gradientTransform="matrix(1 0 0 -1 0 486.063)">
			<stop  offset="0" style="stop-color:#D3AAD4"/>
			<stop  offset="1" style="stop-color:#5E1174"/>
		</linearGradient>
		<path style="fill:url(#SVGID_00000153694047810002815410000004351931164002901681_);" d="M691.6,388.1
			c4.4,10.5,11.1,19.9,19.6,27.6c13.2,11.8,29.7,19.4,47.3,21.8c-7.2,1.6-14.6,1.6-21.8-0.2C706,429.3,691.5,388.2,691.6,388.1z"/>
		
			<linearGradient id="SVGID_00000062889626121270108370000010988595127420798107_" gradientUnits="userSpaceOnUse" x1="522.5179" y1="94.1409" x2="957.424" y2="94.1409" gradientTransform="matrix(1 0 0 -1 0 486.063)">
			<stop  offset="0" style="stop-color:#D3AAD4"/>
			<stop  offset="1" style="stop-color:#5E1174"/>
		</linearGradient>
		<path style="fill:url(#SVGID_00000062889626121270108370000010988595127420798107_);" d="M724.7,439.4c-6.3-3.6-12.1-8-17.1-13.3
			c-11.1-11.6-11.5-19.8-25.3-40.7c-4.4-6.9-9.4-13.4-14.8-19.5c-7.4-8.1-15.7-15.4-24.7-21.6c-0.4,11.4-0.3,22.8,0.4,34.1
			c0.9,13.5,1.4,20.4,4.1,26.3c6.8,14.7,21.2,21.3,31.6,26.1C693.2,437.3,708.9,440.2,724.7,439.4z"/>
		
			<linearGradient id="SVGID_00000067947170008896739790000006544847932629769151_" gradientUnits="userSpaceOnUse" x1="522.5159" y1="107.5758" x2="957.4173" y2="107.5758" gradientTransform="matrix(1 0 0 -1 0 486.063)">
			<stop  offset="0" style="stop-color:#D3AAD4"/>
			<stop  offset="1" style="stop-color:#5E1174"/>
		</linearGradient>
		<path style="fill:url(#SVGID_00000067947170008896739790000006544847932629769151_);" d="M635.9,343.9c1.8,5.9,2.7,12,2.7,18.2
			c-0.2,6-0.9,12.1-2.2,18c-0.9,7.3,0,18.2,9.5,33c-4.4-3.2-8.2-7.2-11-11.9c-5.1-8.7-7.1-18.8-5.6-28.8c1-5.4,2.5-6.6,4.7-16.6
			C635,350.8,635.6,346.7,635.9,343.9z"/>
		
			<linearGradient id="SVGID_00000176039991684505122910000009279897803129074365_" gradientUnits="userSpaceOnUse" x1="522.5139" y1="126.7289" x2="957.4173" y2="126.7289" gradientTransform="matrix(1 0 0 -1 0 486.063)">
			<stop  offset="0" style="stop-color:#D3AAD4"/>
			<stop  offset="1" style="stop-color:#5E1174"/>
		</linearGradient>
		<path style="fill:url(#SVGID_00000176039991684505122910000009279897803129074365_);" d="M621.1,312c5,6.4,8,14.1,8.8,22.1
			c0.2,7-0.7,14-2.7,20.7c-1.5,6.3-3,9.9-3.6,11.9c-2.4,7.4-2.2,19.5,9.5,40c-6.8-4.8-12.4-11-16.6-18.2c-1.9-3.3-11.7-19.9-7.4-38
			c1.3-5.3,2.4-5.2,5.9-15.5C617.6,327.5,619.6,319.8,621.1,312z"/>
		
			<linearGradient id="SVGID_00000085235517155155802170000000442842349170506375_" gradientUnits="userSpaceOnUse" x1="522.5146" y1="164.4167" x2="957.4173" y2="164.4167" gradientTransform="matrix(1 0 0 -1 0 486.063)">
			<stop  offset="0" style="stop-color:#D3AAD4"/>
			<stop  offset="1" style="stop-color:#5E1174"/>
		</linearGradient>
		<path style="fill:url(#SVGID_00000085235517155155802170000000442842349170506375_);" d="M604,367.7c-1.3-5.9-1.6-12-0.9-18
			c0.9-7.1,3.1-13.9,6.5-20.2c4.3-8.8,6.8-24.3-2.7-53.8c-2.5,8.6-5.9,16.8-10.1,24.7c-3.8,6.1-7,12.6-9.5,19.3
			c-1.7,5.4-2.7,11-2.9,16.6C590.9,346.7,597.5,357.1,604,367.7z"/>
		
			<linearGradient id="SVGID_00000098179202679392874380000009509869023296517788_" gradientUnits="userSpaceOnUse" x1="522.5139" y1="142.164" x2="957.4173" y2="142.164" gradientTransform="matrix(1 0 0 -1 0 486.063)">
			<stop  offset="0" style="stop-color:#D3AAD4"/>
			<stop  offset="1" style="stop-color:#5E1174"/>
		</linearGradient>
		<path style="fill:url(#SVGID_00000098179202679392874380000009509869023296517788_);" d="M602,380.7c-4.2-10.5-10.4-20-18.2-28.1
			c-5.2-5.2-11-9.7-17.3-13.5c-3.8-2-7.7-3.8-11.7-5.2c-7.1-3-16.5-9.8-25.3-26.9c1.5,8,4.7,15.6,9.5,22.1
			c6.3,8.3,14.5,15,23.9,19.5c-10-0.2-19.9-2.9-28.5-8.1c2.4,6.7,6.8,12.5,12.7,16.6c8.6,5.6,16.1,3.7,26.9,6.3
			C584.8,366.5,594.5,372.4,602,380.7z"/>
		
			<linearGradient id="SVGID_00000147189922530978693010000002919924925073137571_" gradientUnits="userSpaceOnUse" x1="522.4959" y1="195.8578" x2="957.3953" y2="195.8578" gradientTransform="matrix(1 0 0 -1 0 486.063)">
			<stop  offset="0" style="stop-color:#D3AAD4"/>
			<stop  offset="1" style="stop-color:#5E1174"/>
		</linearGradient>
		<path style="fill:url(#SVGID_00000147189922530978693010000002919924925073137571_);" d="M522.6,240.6c3.7,7.5,8.1,14.7,13.3,21.4
			c6.1,7.9,13.1,15.1,20.9,21.3c1.4,5.9,3,12.2,5,18.7c4,13,9,25.7,15,38c-6.2-2.9-12.1-6.4-17.5-10.6c-7.4-5.8-14-12.5-19.7-20
			C520.6,283.7,522.4,244.3,522.6,240.6z"/>
		
			<linearGradient id="SVGID_00000032621887692667393580000006189625681192021174_" gradientUnits="userSpaceOnUse" x1="522.5119" y1="211.7045" x2="957.4173" y2="211.7045" gradientTransform="matrix(1 0 0 -1 0 486.063)">
			<stop  offset="0" style="stop-color:#D3AAD4"/>
			<stop  offset="1" style="stop-color:#5E1174"/>
		</linearGradient>
		<path style="fill:url(#SVGID_00000032621887692667393580000006189625681192021174_);" d="M604.2,219.2c-2.2,4.9-5.2,9.3-8.8,13.3
			c-6,6.5-11.1,8.4-15.8,12.1c-4.7,3.8-11.7,11.4-15.8,25.6c1.9,15.3,5.5,30.4,10.8,44.9c1.9,5.1,3.8,9.9,5.9,14.4
			c0.7-7.8,2.5-15.4,5.4-22.7c5.1-12.7,9.5-13.8,13.5-24.7c2.1-5.7,2.4-9.2,3.6-34.2C603.4,239.5,603.8,229.8,604.2,219.2z"/>
		
			<linearGradient id="SVGID_00000088109637257082999690000010176588375262967703_" gradientUnits="userSpaceOnUse" x1="522.5152" y1="267.8963" x2="957.3888" y2="267.8963" gradientTransform="matrix(1 0 0 -1 0 486.063)">
			<stop  offset="0" style="stop-color:#D3AAD4"/>
			<stop  offset="1" style="stop-color:#5E1174"/>
		</linearGradient>
		<path style="fill:url(#SVGID_00000088109637257082999690000010176588375262967703_);" d="M536.9,160.8c-4.1,9.8-7.2,19.9-9.2,30.3
			c-2.2,9.6-3,19.6-2.2,29.4c0.7,10.3,3.5,20.4,8.3,29.6c5.4,10.1,13.1,18.8,22.5,25.3c-2.3-10.5-3.5-21.3-3.5-32
			c0-9.3,0.8-18.5,2.5-27.6c-5.6-6.1-10.1-13.1-13.3-20.7C537.5,184.3,535.8,172.5,536.9,160.8z"/>
		
			<linearGradient id="SVGID_00000181787540087846502480000013249607933908108703_" gradientUnits="userSpaceOnUse" x1="522.5139" y1="275.33" x2="957.4173" y2="275.33" gradientTransform="matrix(1 0 0 -1 0 486.063)">
			<stop  offset="0" style="stop-color:#D3AAD4"/>
			<stop  offset="1" style="stop-color:#5E1174"/>
		</linearGradient>
		<path style="fill:url(#SVGID_00000181787540087846502480000013249607933908108703_);" d="M631.9,162.6c-3.4,4.2-6.5,8.6-9.2,13.3
			c-5.2,8.8-5.6,12.4-11.7,23.3c-2.5,4.9-5.4,9.6-8.8,13.9c-3.9,4.9-5.5,5.6-16.9,15.8c-12.1,11-14.7,14.2-16.8,17.7
			c-2.3,3.8-4.1,7.9-5.4,12.1c-1.4-9.1-1.8-18.4-1.3-27.6c0.7-13.5,3.3-26.8,7.8-39.5c3.9-4.9,8.7-9,14.2-12.1
			c7.2-4,12.7-4.6,21-6.8C614.1,170.4,623.2,167,631.9,162.6z"/>
		
			<linearGradient id="SVGID_00000141443791583789652810000014484914338508928154_" gradientUnits="userSpaceOnUse" x1="522.5125" y1="334.6367" x2="957.4173" y2="334.6367" gradientTransform="matrix(1 0 0 -1 0 486.063)">
			<stop  offset="0" style="stop-color:#D3AAD4"/>
			<stop  offset="1" style="stop-color:#5E1174"/>
		</linearGradient>
		<path style="fill:url(#SVGID_00000141443791583789652810000014484914338508928154_);" d="M556.3,208
			c-6.8-10.3-11.2-22.1-12.7-34.4c-4.9-44.1,31.6-75.4,35.8-78.9c-2.6,7.6-4.4,15.4-5.2,23.4c-1.1,11-0.4,22.2,2,33
			C566,168.7,559.2,188,556.3,208L556.3,208z"/>
		
			<linearGradient id="SVGID_00000175290524172505498550000009906432979731086488_" gradientUnits="userSpaceOnUse" x1="522.5159" y1="329.6234" x2="957.4173" y2="329.6234" gradientTransform="matrix(1 0 0 -1 0 486.063)">
			<stop  offset="0" style="stop-color:#D3AAD4"/>
			<stop  offset="1" style="stop-color:#5E1174"/>
		</linearGradient>
		<path style="fill:url(#SVGID_00000175290524172505498550000009906432979731086488_);" d="M572.8,181c3.1-10,7.7-19.6,13.5-28.3
			c9-13.5,15.4-16.5,17.3-17.3c4.4-1.8,8.2-2,15.8-2.2c14.1-0.5,18.6,2.2,30.3,1.4c5-0.4,10-1.3,14.8-2.7
			c-5.2,6.2-11.3,11.7-18,16.4c-8,5.4-16.7,9.7-25.9,12.8c-13.3,4.9-16.5,4-27.4,8.5C586,172.6,579.1,176.4,572.8,181z"/>
		
			<linearGradient id="SVGID_00000179612648838050686120000016234987031094768821_" gradientUnits="userSpaceOnUse" x1="522.5165" y1="388.9632" x2="957.4173" y2="388.9632" gradientTransform="matrix(1 0 0 -1 0 486.063)">
			<stop  offset="0" style="stop-color:#D3AAD4"/>
			<stop  offset="1" style="stop-color:#5E1174"/>
		</linearGradient>
		<path style="fill:url(#SVGID_00000179612648838050686120000016234987031094768821_);" d="M581.2,143.7c-1.1-6.4-1.5-13-1.2-19.5
			c0-11.4,2.6-22.7,7.8-32.9c6.1-11.5,14.4-17.8,23.3-24.6c8.8-6.7,18.6-12.2,29-16.2c-6.2,6.2-11.5,13.4-15.5,21.2
			c-5.4,10.5-8.6,21.9-9.5,33.7l-14.3,13.3l1-19.2c-1.5,3.2-2.6,6.5-3.4,9.9c-0.9,4-1.3,8.2-1.2,12.3l-3.3,4.6
			c-0.6-3.5-0.9-6.9-1-10.4c-0.1-4.1,0.1-8.2,0.7-12.3c-4.2,8.4-5.3,18-3.2,27.1c-1.5,1.9-2.9,3.9-4.4,5.9
			C584.5,138.7,582.7,141.4,581.2,143.7z"/>
		
			<linearGradient id="SVGID_00000092429828922186636550000016997375177848202939_" gradientUnits="userSpaceOnUse" x1="522.5165" y1="420.5781" x2="957.4173" y2="420.5781" gradientTransform="matrix(1 0 0 -1 0 486.063)">
			<stop  offset="0" style="stop-color:#D3AAD4"/>
			<stop  offset="1" style="stop-color:#5E1174"/>
		</linearGradient>
		<path style="fill:url(#SVGID_00000092429828922186636550000016997375177848202939_);" d="M620.5,102c1.2-9.6,4.2-18.8,8.8-27.3
			c6-10.9,14.5-20.3,24.8-27.5c13.2-9.1,25.6-11.9,38.9-14.8c7.9-1.7,15.9-2.9,23.9-3.4c-4.1,3.2-8.2,6.6-12.5,10.6
			c-10.5,9.8-19.6,20.9-27.3,33c-5.4,0.9-10.6,2.4-15.7,4.4c-5.2,2-10.1,4.6-14.7,7.7c0.3-2.8,1-5.6,2-8.3
			c2.3-6.2,6.2-11.6,11.3-15.8c-5,2.6-9.3,6.3-12.5,10.9c-3.2,4.6-5.2,9.9-5.9,15.5l-8.4,4.7l3.7-11.8c-4.1,4.4-7.1,9.7-8.6,15.5
			L620.5,102z"/>
		
			<linearGradient id="SVGID_00000092444948031122968700000003133304013934564018_" gradientUnits="userSpaceOnUse" x1="522.5132" y1="436.4608" x2="957.4173" y2="436.4608" gradientTransform="matrix(1 0 0 -1 0 486.063)">
			<stop  offset="0" style="stop-color:#D3AAD4"/>
			<stop  offset="1" style="stop-color:#5E1174"/>
		</linearGradient>
		<path style="fill:url(#SVGID_00000092444948031122968700000003133304013934564018_);" d="M686.1,69.4c4.1-5.3,8.4-10.4,13-15.3
			c9.3-9.8,14.9-15.7,24.1-19.6c4.9-2.1,10.1-3.5,15.4-4c8.9-0.8,17.8-0.9,26.7-0.4c8.6,0.4,17.1,1.5,25.5,3.2
			c-9.9,1.4-19.3,4.9-27.8,10.3c-8.5,5.5-15.8,12.7-21.3,21.2l-18.7-0.2c3-3.6,6.4-7,10-10.1c3-2.6,6.3-4.9,9.7-7.1
			c-10.4,2.1-19.6,8.3-25.5,17.2l-12.7,1.8c1.1-2.2,2.5-4.3,4-6.3c3.6-4.6,8.2-8.5,13.4-11.2c-5.2,1.5-10,4.2-14.1,7.9
			c-3,2.7-5.5,5.9-7.4,9.5L686.1,69.4z"/>
		
			<linearGradient id="SVGID_00000032621518246721716380000007140308078169453989_" gradientUnits="userSpaceOnUse" x1="522.5146" y1="430.3822" x2="957.4173" y2="430.3822" gradientTransform="matrix(1 0 0 -1 0 486.063)">
			<stop  offset="0" style="stop-color:#D3AAD4"/>
			<stop  offset="1" style="stop-color:#5E1174"/>
		</linearGradient>
		<path style="fill:url(#SVGID_00000032621518246721716380000007140308078169453989_);" d="M746.6,64.3c4.9-4.1,10-7.8,15.5-11.1
			c8.5-5.2,17.7-9.3,27.3-12.1c24-5.6,47.5,10.9,53.4,15.3c-17.6,0.1-34.7,5.3-49.4,15c-4.1-0.8-8.3-1.6-12.5-2.3
			C769,67,757.5,65.4,746.6,64.3z"/>
		
			<linearGradient id="SVGID_00000039824214743633026350000015196770062035025051_" gradientUnits="userSpaceOnUse" x1="522.5179" y1="387.462" x2="957.4173" y2="387.462" gradientTransform="matrix(1 0 0 -1 0 486.063)">
			<stop  offset="0" style="stop-color:#D3AAD4"/>
			<stop  offset="1" style="stop-color:#5E1174"/>
		</linearGradient>
		<path style="fill:url(#SVGID_00000039824214743633026350000015196770062035025051_);" d="M796.9,73.5c6.2-3.3,12.7-5.9,19.6-7.6
			c11.3-3.3,23.3-3.7,34.8-1.2c13.1,3.5,24.7,11,33.2,21.5c-3.9-1.9-8.2-3-12.5-3.2c-4.4-0.2-8.7,0.5-12.8,2
			c7.3,1.2,14.3,3.5,20.9,6.7c9.2,4.6,12.4,8.7,21.4,13.5c7.3,3.8,15.1,6.4,23.3,7.7c-4.3,3.1-8.9,5.9-13.7,8.3
			c-8.1,4.1-16.7,6.9-25.6,8.4c-24.6,3.2-47.7-20.5-50.6-23.4c0.8,3.1,2,6.2,3.7,9c8.4,14.1,24.7,17.6,29,18.3
			c-6.2,0.9-12.5,0.6-18.5-0.9c-16.3-4-26.2-16.1-36.2-28.3c-6-7.4-11.3-15.3-15.8-23.8l22.6,8.1c1,2.6,2.4,5,4,7.2
			c1.8,2.5,3.9,4.7,6.3,6.6c-2.2-2.2-3.9-4.8-4.9-7.7c-0.7-2-1-4.2-1-6.3l21.7,9.1c1.1,2.5,2.6,4.8,4.2,6.9
			c5.3,6.7,12.7,11.5,20.9,13.8c-4-1.6-7.7-4-10.7-7.1c-3.1-3.1-5.4-6.7-7-10.8c9.6,7.3,21.3,11.3,33.4,11.6
			c-7.4-3.2-13.3-5.9-17.2-7.7c-9.5-4.6-13.7-7.3-24.7-12.7c-5.7-2.8-10.4-5-13.3-6.3c1.9-1.3,3.9-2.4,6-3.2
			c3.8-1.3,7.8-1.7,11.8-1.2c-7.8-1.9-16.1-1.3-23.6,1.7c-3.2-1.1-6.3-2.3-9.5-3.4C809.5,77.1,803.1,75.1,796.9,73.5z"/>
		
			<linearGradient id="SVGID_00000122697136264089045170000017467251681959043000_" gradientUnits="userSpaceOnUse" x1="522.5172" y1="383.4146" x2="957.4173" y2="383.4146" gradientTransform="matrix(1 0 0 -1 0 486.063)">
			<stop  offset="0" style="stop-color:#D3AAD4"/>
			<stop  offset="1" style="stop-color:#5E1174"/>
		</linearGradient>
		<path style="fill:url(#SVGID_00000122697136264089045170000017467251681959043000_);" d="M675.7,81.4c3-2,6.5-2.9,10.1-2.7
			c1.9,0.2,3.7,0.9,5.4,1.8c4.8,2.3,9.7,4,14.8,5.3c-3.7-2.1-7.6-4.2-11.7-6.3c-2-1-3.9-1.9-5.9-2.8h10.4c2.5,2.1,5.1,4.1,8,5.7
			c5,3.1,10.5,5.5,16.2,6.9c-4-1.9-7.8-4-11.6-6.3c-3.7-2.4-7.3-5-10.8-7.7l11.8-0.3c3.7,3.2,7.7,6,11.9,8.5
			c3.7,2.2,7.6,4.2,11.7,5.9c-6-2.8-11.5-6.7-16.1-11.5c-1.3-1.4-2.6-2.9-3.7-4.4h11.6c2.4,2,5.1,4.1,8.1,6.3
			c4.3,3,8.8,5.8,13.5,8.2c-3-2.7-6.3-5.4-9.8-8.2c-3.4-2.8-6.3-4.7-9.2-6.9c19.2-1.4,38.5,0.7,57,6.1c3,3,5.8,6.3,8.4,9.7
			c4.2,5.6,7.8,11.7,10.7,18.1c3.5,7.2,11.3,16.7,30.1,26c-9,0.6-18-0.3-26.6-2.6c-19.8-5.7-37-18-48.9-34.8c0.4,2.5,1.1,4.9,2,7.3
			c2.5,6.2,6.5,11.7,11.8,15.8c-13.5-2.1-26.5-6.1-38.9-11.9c-14.9-7.1-24.5-15-44.5-21.1C686.3,83.7,681,82.4,675.7,81.4z"/>
		
			<linearGradient id="SVGID_00000037660164457712173350000014281116494427644060_" gradientUnits="userSpaceOnUse" x1="522.5146" y1="377.1534" x2="957.4173" y2="377.1534" gradientTransform="matrix(1 0 0 -1 0 486.063)">
			<stop  offset="0" style="stop-color:#D3AAD4"/>
			<stop  offset="1" style="stop-color:#5E1174"/>
		</linearGradient>
		<path style="fill:url(#SVGID_00000037660164457712173350000014281116494427644060_);" d="M660.1,87.4c6.1-0.8,12.2-0.6,18.2,0.5
			c11.4,2.2,17.2,7.1,30.2,13.2c8.1,3.8,16.4,6.8,24.9,9.3c-7.4,0.3-14.9,1.3-22.2,2.8c-16.4,3.5-17.9,7-32.3,10.1
			c-12.2,2.5-24.7,3.4-37.1,2.7c-7.7-0.9-15.4-0.9-23.1,0.2c-5.6,0.9-11,2.5-16.2,4.7c3.1-4.5,7.2-8.3,11.8-11.3
			c16.9-10.8,36.1-5.2,39.8-4c-5-3.4-10.8-5.4-16.8-5.8c-6-0.4-12,0.7-17.4,3.3c4.9-3.6,10.1-7.3,15.7-10.9
			C644,96.5,652.2,91.6,660.1,87.4z"/>
		
			<linearGradient id="SVGID_00000111193468007839036210000012454942206426364810_" gradientUnits="userSpaceOnUse" x1="522.5139" y1="238.8275" x2="957.4173" y2="238.8275" gradientTransform="matrix(1 0 0 -1 0 486.063)">
			<stop  offset="0" style="stop-color:#D3AAD4"/>
			<stop  offset="1" style="stop-color:#5E1174"/>
		</linearGradient>
		<path style="fill:url(#SVGID_00000111193468007839036210000012454942206426364810_);" d="M737.4,288.6c-8.2,0-16.2-2.4-23-7
			c-6.8-4.5-12.1-11-15.2-18.5c-3.1-7.6-4-15.9-2.4-23.9c1.6-8,5.5-15.4,11.3-21.2c5.8-5.8,13.2-9.7,21.2-11.3
			c8-1.6,16.3-0.8,23.9,2.3c7.6,3.1,14,8.4,18.6,15.2c4.5,6.8,7,14.8,7,23c0,11-4.4,21.5-12.1,29.2
			C758.9,284.2,748.4,288.6,737.4,288.6z M737.4,211.2c-7.1,0-14.1,2.1-20.1,6.1c-5.9,4-10.6,9.6-13.3,16.2
			c-2.7,6.6-3.4,13.8-2.1,20.8c1.4,7,4.8,13.4,9.9,18.5c5,5,11.5,8.5,18.5,9.9c7,1.4,14.3,0.7,20.9-2.1c6.6-2.7,12.2-7.4,16.2-13.3
			c4-5.9,6.1-12.9,6.1-20c0-9.5-3.8-18.7-10.6-25.5C756.1,215,747,211.2,737.4,211.2z"/>
		
			<linearGradient id="SVGID_00000068666902386007369640000014380074803837166722_" gradientUnits="userSpaceOnUse" x1="522.5152" y1="238.6069" x2="957.4173" y2="238.6069" gradientTransform="matrix(1 0 0 -1 0 486.063)">
			<stop  offset="0" style="stop-color:#D3AAD4"/>
			<stop  offset="1" style="stop-color:#5E1174"/>
		</linearGradient>
		<path style="fill:url(#SVGID_00000068666902386007369640000014380074803837166722_);" d="M737.9,366c-23.5,0-46.4-7-65.9-20
			c-19.5-13-34.7-31.5-43.7-53.2c-9-21.7-11.3-45.5-6.7-68.5c4.6-23,15.9-44.1,32.5-60.7s37.7-27.9,60.7-32.4
			c23-4.6,46.8-2.2,68.5,6.8c21.7,9,40.2,24.2,53.2,43.7c13,19.5,20,42.4,20,65.8c0,31.4-12.5,61.6-34.8,83.8
			C799.5,353.5,769.4,366,737.9,366z M737.9,136.9c-21.9,0-43.3,6.5-61.5,18.7c-18.2,12.2-32.4,29.5-40.8,49.7
			c-8.4,20.2-10.6,42.5-6.3,64c4.3,21.5,14.8,41.2,30.3,56.7c15.5,15.5,35.2,26,56.7,30.3c21.5,4.3,43.8,2.1,64-6.3
			c20.2-8.4,37.5-22.6,49.7-40.8c12.2-18.2,18.7-39.6,18.7-61.5c0-14.5-2.8-29-8.4-42.4c-5.6-13.4-13.7-25.7-24-36
			c-10.3-10.3-22.5-18.5-35.9-24c-13.4-5.6-27.9-8.4-42.4-8.4V136.9z"/>
		<path class="st57" d="M780.1,183.2c4.9,0,8.9-4,8.9-8.9c0-4.9-4-8.9-8.9-8.9c-4.9,0-8.9,4-8.9,8.9
			C771.2,179.2,775.2,183.2,780.1,183.2z"/>
		<path class="st57" d="M759.2,239.7c7.9,0,14.3-6.4,14.3-14.3c0-7.9-6.4-14.3-14.3-14.3c-7.9,0-14.3,6.4-14.3,14.3
			C744.9,233.4,751.3,239.7,759.2,239.7z"/>
		<path class="st57" d="M821.6,247.5c3.3,0,6-2.7,6-6c0-3.3-2.7-6-6-6c-3.3,0-6,2.7-6,6C815.5,244.8,818.2,247.5,821.6,247.5z"/>
		<path class="st57" d="M698.5,313.1c3.3,0,6-2.7,6-6s-2.7-6-6-6c-3.3,0-6,2.7-6,6S695.2,313.1,698.5,313.1z"/>
		<path class="st57" d="M729.6,344.7c3.3,0,6-2.7,6-6c0-3.3-2.7-6-6-6c-3.3,0-6,2.7-6,6C723.5,342,726.2,344.7,729.6,344.7z"/>
		<path class="st57" d="M665.8,265.8c3.3,0,6-2.7,6-6c0-3.3-2.7-6-6-6c-3.3,0-6,2.7-6,6C659.8,263.1,662.5,265.8,665.8,265.8z"/>
		<path class="st57" d="M653.5,205.9c1.6,0,2.8-1.3,2.8-2.8c0-1.6-1.3-2.8-2.8-2.8s-2.8,1.3-2.8,2.8
			C650.6,204.7,651.9,205.9,653.5,205.9z"/>
		<path class="st57" d="M675.9,224.4c1.6,0,2.9-1.3,2.9-2.8c0-1.6-1.3-2.8-2.9-2.8c-1.6,0-2.8,1.3-2.8,2.8
			C673.1,223.1,674.4,224.4,675.9,224.4z"/>
		<path class="st57" d="M724.7,193c1.6,0,2.8-1.3,2.8-2.8c0-1.6-1.3-2.8-2.8-2.8c-1.6,0-2.9,1.3-2.9,2.8
			C721.8,191.7,723.1,193,724.7,193z"/>
		<path class="st57" d="M726.3,166.9c1.6,0,2.9-1.3,2.9-2.8c0-1.6-1.3-2.8-2.9-2.8s-2.9,1.3-2.9,2.8
			C723.5,165.7,724.8,166.9,726.3,166.9z"/>
		<path class="st57" d="M804.5,294.8c2.6,0,4.7-2.1,4.7-4.7c0-2.6-2.1-4.7-4.7-4.7c-2.6,0-4.7,2.1-4.7,4.7
			C799.8,292.7,801.9,294.8,804.5,294.8z"/>
		<path class="st57" d="M762.9,311.7c2.6,0,4.7-2.1,4.7-4.7c0-2.6-2.1-4.7-4.7-4.7c-2.6,0-4.7,2.1-4.7,4.7
			C758.2,309.6,760.3,311.7,762.9,311.7z"/>
		<path class="st57" d="M668.7,195.8c1.6,0,2.8-1.3,2.8-2.8s-1.3-2.8-2.8-2.8s-2.8,1.3-2.8,2.8S667.1,195.8,668.7,195.8z"/>
		<path class="st58" d="M75.3,42.4L58.9,58.8l16,15.9l16.4-16.4L75.3,42.4z"/>
		<path class="st58" d="M117.7,42.4l-16.4,16.4l16,15.9l16.4-16.4L117.7,42.4z"/>
		<path class="st58" d="M257.4,162.4c0-0.7,0.1-1.4,0.3-2.2l2.4-10.5c8.8-37.4,13.8-59.2,15.5-65.7l-28.1,8.6
			c0.7,2.7,1.1,5.5,0.9,8.3c-0.5,5.2-1.3,10.4-2.6,15.5c-4.7,20.2-8.8,43.1-16.2,50c-3.8,3.3-9.8,5-18.1,4.8h-1.9
			c2.4-7,4.4-14.2,6-21.4c8.8-37.4,13.8-59.2,15.2-65.7l-27.9,8.6c0.8,2.7,1.3,5.5,1.2,8.3c-0.5,5.2-1.4,10.4-2.9,15.5
			c-2.4,10.2-4.7,20.5-7.4,30.9c-4.1,18.3-10.7,24-26.7,23.8h-2.4c2.5-7,4.5-14.2,6-21.4c8.8-37.4,13.8-59.2,15.3-65.7l-27.9,8.6
			c0.7,2.7,1.1,5.5,0.9,8.3c-0.5,5.2-1.4,10.4-2.9,15.5c-2.1,10.2-4.7,20.5-7.4,30.9c-4.1,18.3-10,23.8-26.9,23.8h-13.1
			c-5.5,0-8.3-2.4-8.3-6.9c0-1.5,0.3-3.1,0.7-4.5c11.7-45,17.9-68.3,18.1-69.6C100,80.9,72.4,87,56.4,97.3
			C42.1,106.6,28,124.7,25,151.6c-2.9,24.5,5.5,40,23.6,40c11.2,0,21-6.3,29.3-19c2.2,10.2,11.9,16.2,24.1,16.2h37.6
			c4.7,0.3,9.5-0.8,13.6-3.1c4.1-2.3,7.5-5.8,9.7-10c0.4-0.8,0.7-1.7,0.9-2.6c3.6,10.5,10.5,15.8,20.7,15.8
			c10.7,0,18.6-4.3,23.1-13.1c0.3-0.6,0.7-1.2,0.9-1.9c3.8,10,10.7,15,20.5,15c5.7,0.2,11.4-1.4,16.2-4.5c3.6,3,8.2,4.6,12.9,4.5
			h10.2v-17.6H266C260.3,170.2,257.4,167.4,257.4,162.4z M76.2,154.1c-6.3,10.7-13.6,15.8-21.6,16.2c-1.4,0-2.8-0.4-3.9-1.2
			c-1.1-0.8-2-2-2.4-3.3c-1.8-4.3-2.3-9-1.4-13.5c1.4-11.7,6.7-22.6,15.1-30.8c8.4-8.3,19.4-13.4,31.1-14.6
			C90.2,123.4,84.5,139.4,76.2,154.1z"/>
		<path class="st58" d="M277.9,171.2h-9.5v17.4h9.5V171.2z"/>
		<path class="st58" d="M197.9,64.1l-16-16.2l16.6-16.4l15.7,15.9L197.9,64.1z"/>
		<path class="st58" d="M218.1,39.4l-16-15.7L218.8,7l15.7,15.9L218.1,39.4z"/>
		<path class="st58" d="M235.5,64.1l-16-16.2L236,31.5l16.2,15.9L235.5,64.1z"/>
		<path class="st58" d="M373.8,84.6c-2.1,8.6-7.1,30.2-15.2,65.2c-6,25.9-9.3,38.8-31,38.8h-59.3v-17.4h41.9
			c19,0,21.9-2.9,26.9-23.8c1.4-5.9,2.4-10,3.2-12.4c0.7-4,2.2-10.2,4.1-18.1c1.3-5.1,2.2-10.2,2.6-15.5c0.1-2.8-0.2-5.6-0.9-8.3
			L373.8,84.6z"/>
		<path class="st58" d="M314.3,235.5l-15.7-15.9l16.4-16.2l15.5,15.7L314.3,235.5z"/>
		<path class="st58" d="M351.5,235.5L336,219.5l16.2-16.2l15.7,15.7L351.5,235.5z"/>
		<path class="st58" d="M452.2,84.6c-1.2,4.5-4.1,16.6-8.3,36.2c-5.5,24-10.3,44.3-14.1,60.1c-5.7,26.4-9.3,39-31,39
			c-7.9,0-15.3-3.8-22.2-11.7h3.6c8.1,0,14.1-1.6,17.8-5.2c7.6-6.9,9.3-20,15.8-49.5c3.6-16.2,6.3-28.5,8.4-36.7
			c1.4-5.1,2.4-10.2,2.8-15.5c0-2.8-0.4-5.6-1.2-8.3L452.2,84.6z"/>
		<path class="st59" d="M143.4,332.9c0,17.5-10.3,32.2-30.7,44.3c11.9,5,22.6,20.3,22.6,37.6c0,35.7-22.6,64.2-66.1,64.2
			c-33.8,0-55.1-20.7-55.1-41.1c0-7.8,4.7-16.9,13.5-27.9c4.7,28.5,21,42.9,41.6,42.9c22.2,0,36.4-14.4,36.4-38
			c0-6.7-2.5-13.1-7.1-18c-4.6-4.8-10.9-7.7-17.6-8H68.5l7.8-25.7c3.5,0.8,7.1,1.3,10.7,1.3c14.1,0,28.5-13.2,28.5-31
			c0-15.1-9.7-23.2-24.4-23.2c-17.2,0-29.4,12.8-29.7,31.3l-25.1-15.7c5-21.3,26-40.4,57-40.4C124.2,285.5,143.4,306.8,143.4,332.9z
			"/>
		<path class="st59" d="M280.9,293.3c-61.4,34.1-96.8,85.8-96.8,124.3c0,21.9,10.9,36.6,29.1,36.6c16.9,0,34.1-19,34.1-46.3
			c0-21-9.7-31.3-29.4-31.3h-7.5c4.7-11.9,12.8-18.2,24.1-18.2c24.1,0,40.4,16.9,40.4,47.3c0,38.2-25.3,73-62.3,73
			c-36.4,0-57-24.4-57-60.8c0-44.3,37.6-96.4,81.5-124.6H280.9z"/>
		<path class="st59" d="M374.9,285.4c-48.5,0-81.8,60.1-81.8,124.6c0,40.1,15.8,68.6,51.7,68.6c47.5,0,80.2-62.3,80.2-128.1
			C425.1,309.6,405.6,285.4,374.9,285.4z M346.7,453.1c-15.3,0-22.9-13.4-22.9-40.4c0-46.3,20.7-100.8,47.9-100.8
			c14.7,0,22.2,12.2,22.2,37.3C394.1,396.7,373.1,453.1,346.7,453.1z"/>
	</g>
</g>
</svg>
